<svg id="Capa_1" xmlns="http://www.w3.org/2000/svg" viewBox="0 0 228 80.4"><style>.st0,.st1{fill:#fff}.st1{fill-rule:evenodd;clip-rule:evenodd}</style><path class="st0" d="M199.4 33.5c-1.1-.6-2.6-.2-3.3 1-.7 1.2-.3 2.7.8 3.3 1.3.8 2.9.3 3.6-.9.7-1.1.3-2.6-1.1-3.4"/><path class="st0" d="M183.4 53.2l1.2-2.2 9.2 1.4.6-1.1-7.6-4.3 1.1-2 6.8-1-4.7-2.7 1.1-2 7.6 4.3 2.2-3.8c-1.5 1.1-3.5 1.3-5.3.2-2.3-1.3-2.8-4.3-1.6-6.5 1.3-2.2 4.1-3.4 6.4-2 1.9 1.1 2.8 2.9 2.5 4.7l2.7-4.7c-.4.4-.8.7-1.3.9l-1.1-1.8c.7-.3 1.4-.6 1.8-1.3.3-.5.3-1.1-.2-1.4-.6-.3-1.2.4-1.6.7-1.1 1.1-1.9 1.7-3.4.9-1.6-.9-2-2.6-1.1-4.1.4-.8 1.2-1.6 2-2.1l1.1 1.7c-.5.2-1 .6-1.3 1-.2.4-.3 1 .2 1.2.5.3.9-.2 1.2-.5l.4-.4c.9-.9 1.9-1.4 3.2-.7.8.4 1.5 1.1 1.6 2 .1.4.1.8 0 1.1l11-19.2h-44.4v11.9h22.6L172 63.5h15.4l1.9-3.2-5.9-7.1zm2.8-10.5c.3-.5 1.1-1.1 1.3-1.5.1-.3 0-.4-.1-.6l.5-.9c.7.5 1.4 1.4.9 2.3-.3.5-1 .9-1.3 1.3-.1.2 0 .4.2.6l-.5.8-.1-.1c-.3-.2-.6-.4-.8-.7-.3-.3-.3-.8-.1-1.2"/><path class="st0" d="M191 46.7l4.6 2.6 2.1-3.6-6.7 1zM188.4 55.7l.9-1.7-2.9-.6zM191.2 54.3l-1.6 2.8.9 1.1 2.1-3.7zM108.1 26.9h2.4v9.3h-2.4zM112.6 26.9h2.4l4.4 5.7h.1v-5.7h2.4v9.3h-2.4l-4.4-5.7h-.1v5.7h-2.4zM129 29.3c-.4-.4-1-.6-1.6-.6-.4 0-1 .3-1 .8s.7.7 1.1.9l.6.2c1.3.4 2.3 1 2.3 2.5 0 .9-.2 1.9-1 2.5-.7.6-1.7.9-2.6.9-1.2 0-2.3-.4-3.3-1.1l1-1.9c.6.5 1.3 1 2.1 1 .6 0 1.2-.3 1.2-.9 0-.7-.9-.9-1.5-1.1-1.5-.4-2.5-.8-2.5-2.6 0-1.9 1.3-3.1 3.2-3.1.9 0 2.1.3 2.9.8l-.9 1.7zM135.7 36.2h-2.4V29h-2v-2.1h6.4V29h-2zM139 26.9h2.4v9.3H139zM147.2 36.2h-2.4V29h-2v-2.1h6.4V29h-2zM158.6 26.9v5.2c0 1.2 0 2.4-1 3.3-.8.8-2 1-3.1 1s-2.3-.3-3.1-1c-.9-.9-1-2.1-1-3.3v-5.2h2.4v4.9c0 1.2.1 2.5 1.6 2.5s1.6-1.3 1.6-2.5v-4.9h2.6zM164.3 36.2h-2.4V29h-2v-2.1h6.4V29h-2zM177.4 31.4c0 3-2.1 5.1-5.1 5.1-3 0-5.1-2.1-5.1-5.1 0-2.8 2.5-4.8 5.1-4.8 2.7 0 5.1 2 5.1 4.8m-7.7 0c0 1.6 1.2 2.8 2.6 2.8 1.4 0 2.6-1.2 2.6-2.8 0-1.3-1.2-2.4-2.6-2.4-1.4 0-2.6 1.1-2.6 2.4M77.6 39.3h3.7c2 0 3.4.9 3.4 3 0 2.2-1.2 3.1-3.3 3.1H80v3.1h-2.4v-9.2zm2.4 4.3h.4c.9 0 1.7 0 1.7-1.1 0-1.2-.8-1.2-1.7-1.2H80v2.3zM93.9 48.6h-3L88.6 45v3.6h-2.4v-9.3h3.6c1.8 0 3.2.9 3.2 2.8 0 1.3-.7 2.4-2 2.6l2.9 3.9zm-5.3-5.1h.2c.8 0 1.7-.1 1.7-1.2 0-1-.9-1.2-1.7-1.2h-.2v2.4zM104.8 43.8c0 3-2.1 5.1-5.1 5.1-3 0-5.1-2.1-5.1-5.1 0-2.8 2.5-4.8 5.1-4.8 2.6 0 5.1 2 5.1 4.8m-7.7 0c0 1.6 1.2 2.8 2.6 2.8 1.4 0 2.6-1.2 2.6-2.8 0-1.3-1.2-2.4-2.6-2.4-1.5-.1-2.6 1.1-2.6 2.4M108.8 41.4v1.5h2.7v2h-2.7v3.7h-2.4v-9.3h5.3v2.1zM116 41.4v1.5h2.7v2H116v1.6h2.8v2.1h-5.2v-9.3h5.2v2.1zM125.9 41.7c-.4-.4-1-.6-1.6-.6-.4 0-1 .3-1 .8s.7.7 1.1.9l.6.2c1.3.4 2.3 1 2.3 2.5 0 .9-.2 1.9-1 2.5-.7.6-1.7.9-2.6.9-1.2 0-2.3-.4-3.3-1.1l1-1.9c.6.5 1.3 1 2.1 1 .6 0 1.2-.3 1.2-.9 0-.7-.9-.9-1.5-1.1-1.5-.4-2.5-.8-2.5-2.6 0-1.9 1.3-3.1 3.2-3.1.9 0 2.1.3 2.9.8l-.9 1.7zM128.9 39.3h2.4v9.3h-2.4zM143.1 43.8c0 3-2.1 5.1-5.1 5.1-3 0-5.1-2.1-5.1-5.1 0-2.8 2.5-4.8 5.1-4.8 2.7 0 5.1 2 5.1 4.8m-7.7 0c0 1.6 1.2 2.8 2.6 2.8 1.4 0 2.6-1.2 2.6-2.8 0-1.3-1.2-2.4-2.6-2.4-1.4-.1-2.6 1.1-2.6 2.4M144.7 39.3h2.4l4.4 5.7h.1v-5.7h2.4v9.3h-2.4l-4.4-5.7h-.1v5.7h-2.4zM158.4 47l-.6 1.6h-2.6l3.6-9.3h2.6l3.5 9.3h-2.6l-.6-1.6h-3.3zm1.7-4.8l-1 2.9h2l-1-2.9zM168.5 46.5h2.9v2.1h-5.3v-9.3h2.4zM84.8 60.9l-.6 1.6h-2.6l3.6-9.3h2.6l3.5 9.3h-2.6l-.6-1.6h-3.3zm1.6-4.8l-1 2.9h2l-1-2.9zM99.1 56.4c-.5-.7-1.3-1-2.1-1-1.5 0-2.5 1.1-2.5 2.6s1 2.5 2.5 2.5c.8 0 1.6-.4 2.1-1v2.9c-.8.2-1.4.4-2.1.4-1.3 0-2.5-.5-3.5-1.4-1-.9-1.5-2.1-1.5-3.5 0-1.3.5-2.5 1.4-3.4.9-.9 2.2-1.5 3.5-1.5.8 0 1.5.2 2.2.5v2.9zM108.8 62.5h-3l-2.3-3.6v3.6h-2.4v-9.3h3.6c1.8 0 3.2.9 3.2 2.8 0 1.3-.7 2.4-2 2.6l2.9 3.9zm-5.3-5.1h.2c.8 0 1.7-.1 1.7-1.2 0-1-.9-1.2-1.7-1.2h-.2v2.4zM112.3 55.3v1.5h2.8v2.1h-2.8v1.6h2.9v2h-5.3v-9.3h5.3v2.1zM117.2 53.2h3.4c2.6 0 4.7 2 4.7 4.6 0 2.6-2.1 4.6-4.7 4.6h-3.4v-9.2zm2.4 7.3h.5c1.4 0 2.7-.8 2.7-2.6 0-1.7-1.1-2.6-2.6-2.6h-.6v5.2zM126.9 53.2h2.4v9.3h-2.4zM135.1 62.5h-2.4v-7.2h-2v-2.1h6.4v2.1h-2zM140.1 60.9l-.6 1.6h-2.6l3.6-9.3h2.6l3.5 9.3H144l-.6-1.6h-3.3zm1.6-4.8l-1 2.9h2l-1-2.9zM147.8 53.2h3.4c2.6 0 4.7 2 4.7 4.6 0 2.6-2.1 4.6-4.7 4.6h-3.4v-9.2zm2.4 7.3h.5c1.4 0 2.7-.8 2.7-2.6 0-1.7-1.1-2.6-2.6-2.6h-.6v5.2zM167.3 57.7c0 3-2.1 5.1-5.1 5.1-3 0-5.1-2.1-5.1-5.1 0-2.8 2.5-4.8 5.1-4.8 2.6 0 5.1 2 5.1 4.8m-7.7 0c0 1.6 1.2 2.8 2.6 2.8 1.4 0 2.6-1.2 2.6-2.8 0-1.3-1.2-2.4-2.6-2.4-1.5 0-2.6 1.1-2.6 2.4M10.6 50.5c-.1 0-.2.1-.3.1-.1 0-.2.1-.4.1h-.5c-.3 0-.6-.1-.9-.2-.2-.1-.5-.2-.7-.5-.2-.2-.4-.5-.5-.8-.1-.3-.2-.7-.2-1.1 0-.4.1-.8.2-1.1.1-.3.3-.6.5-.8.2-.2.5-.4.8-.5.3-.1.6-.2 1-.2.3 0 .5 0 .8.1.2.1.4.2.6.2 0 .1-.1.2-.1.3v.3c0-.1-.1-.1-.2-.2s-.2-.2-.3-.2c-.1-.1-.2-.1-.3-.2-.1 0-.3-.1-.4-.1-.3 0-.5 0-.7.1-.2.1-.4.2-.6.4-.3.2-.4.5-.5.8-.1.3-.1.7-.1 1.1 0 .4 0 .8.1 1.1.1.3.2.5.4.8.2.2.3.3.6.4.2.1.4.1.7.1.2 0 .3 0 .4-.1.1 0 .2-.1.4-.2.1-.1.2-.1.3-.2.1-.1.2-.1.2-.2l-.1.4c0 .2-.1.2-.2.3M11.5 48c.1-.2.2-.4.4-.6.2-.2.3-.3.5-.3.2-.1.4-.1.6-.1.2 0 .4 0 .6.1.2.1.3.2.5.3.1.1.3.3.4.6.1.2.1.5.1.9 0 .3 0 .6-.1.9-.1.2-.2.4-.4.6-.1.2-.3.3-.5.3-.2.1-.4.1-.6.1-.2 0-.4 0-.6-.1-.2-.1-.3-.2-.5-.3-.1-.2-.3-.3-.4-.6-.1-.2-.1-.5-.1-.9s0-.7.1-.9m.5 1.5c0 .2.1.4.2.5.1.2.2.3.3.4.1.1.3.1.5.1s.3 0 .5-.1c.1-.1.2-.2.3-.4.1-.2.1-.3.2-.5v-.6-.6c0-.2-.1-.4-.2-.5-.1-.1-.2-.3-.3-.4-.1-.1-.3-.1-.5-.1s-.4 0-.5.1c-.1.1-.2.2-.3.4-.1.2-.1.3-.2.5v.6c-.1.2-.1.4 0 .6M15.2 47.8v-.7h.5v.6c.2-.5.5-.7.9-.7.1 0 .2 0 .3.1.1 0 .2.1.3.2.1.1.2.1.2.2.1.1.1.2.1.3.1-.2.2-.4.4-.6.2-.1.4-.2.6-.2.1 0 .3 0 .4.1.1 0 .2.1.3.2.1.1.2.2.2.4 0 .1.1.3.1.5V50.8H19.2h-.1V50v-1.6-.4c0-.1-.1-.2-.1-.3l-.2-.2c-.1 0-.2-.1-.3-.1-.2 0-.3 0-.4.1-.1.1-.2.2-.2.3 0 0-.1.1-.1.2s0 .1-.1.3v2.5h-.6V50v-1.3-.3-.2c0-.1 0-.1-.1-.2 0-.1-.1-.2-.2-.2-.1-.1-.2-.1-.3-.1-.3 0-.5.1-.6.3-.1.2-.2.5-.2.9V50.9h-.6v-.7-1.5c.1-.5.1-.7.1-.9M20.6 45.5c.1-.1.1-.1.2-.1s.2 0 .2.1c.1.1.1.2.1.3 0 .1 0 .2-.1.3-.1.1-.1.1-.2.1s-.2 0-.2-.1c-.1-.1-.1-.2-.1-.3 0-.1.1-.2.1-.3m0 2.3v-.7h.6V50.7h-.6V50v-1.5-.7M22.3 50.1c0 .1.1.1.2.2s.1.1.2.1h.4c.1 0 .1-.1.2-.1.1-.1.1-.1.1-.2v-.3c0-.2 0-.3-.1-.4-.1-.1-.2-.2-.3-.2-.1 0-.2-.1-.4-.1-.1 0-.3-.1-.4-.2l-.3-.3c.1-.1.1-.3.1-.5s0-.3.1-.5c0-.1.1-.2.2-.3.1-.1.2-.2.3-.2.1-.1.3-.1.4-.1.2 0 .3 0 .4.1.1 0 .2.1.3.1 0 .1-.1.2-.1.3 0 .1-.1.2-.1.3h-.1c0-.1-.1-.2-.2-.3-.1-.1-.2-.1-.4-.1h-.2c-.1 0-.1.1-.2.1s-.1.1-.1.2v.3c0 .2 0 .3.1.4.1.1.2.2.3.2.1 0 .2.1.4.1.1 0 .3.1.4.2l.3.3c.1.1.1.3.1.5 0 .1 0 .3-.1.4-.1.1-.1.3-.2.4-.1.1-.2.2-.4.3-.1.1-.3.1-.5.1s-.4 0-.5-.1c-.1-.1-.2-.1-.3-.2 0-.1.1-.2.1-.3V50h.1c.1 0 .1 0 .2.1M24.8 45.5c.1-.1.1-.1.2-.1s.2 0 .2.1c.1.1.1.2.1.3 0 .1 0 .2-.1.3-.1.1-.1.1-.2.1s-.2 0-.2-.1c-.1-.1-.1-.2-.1-.3 0-.1.1-.2.1-.3m0 2.3v-.7h.6V50.7h-.6V50v-1.5-.7M26.3 48c.1-.2.2-.4.4-.6.1-.2.3-.3.5-.3.2-.1.4-.1.5-.1.2 0 .4 0 .6.1.2.1.4.2.5.3.1.1.3.3.4.6.1.2.1.5.1.9 0 .3 0 .6-.1.9-.1.2-.2.4-.4.6-.1.2-.3.3-.5.3-.2.1-.4.1-.6.1-.2 0-.4 0-.5-.1-.2-.1-.4-.2-.5-.3-.1-.1-.3-.3-.4-.6-.1-.2-.1-.5-.1-.9-.1-.4 0-.7.1-.9m.4 1.5c0 .2.1.4.2.5.1.2.2.3.3.4.1.1.3.1.5.1s.4 0 .5-.1c.1-.1.2-.2.3-.4.1-.2.1-.3.2-.5 0-.2.1-.4.1-.6 0-.2 0-.4-.1-.6 0-.2-.1-.4-.2-.5-.1-.1-.2-.3-.3-.4-.1-.1-.3-.1-.5-.1s-.3 0-.5.1c-.1.1-.2.2-.3.4-.1.2-.1.3-.2.5v1.2m1.8-4.4s.1 0 .1.1c.1 0 .1.1.1.2s0 .2-.1.2c-.1.1-.1.1-.2.1l-.9.7h-.3l.9-1.1c.2-.1.3-.2.4-.2M31.8 47.7c-.1-.2-.3-.3-.5-.3-.3 0-.5.1-.6.3-.1.2-.2.5-.2.9V50.6h-.6v-.7-1.5-.7-.7h.5v.6c.1-.2.3-.4.4-.5.2-.1.4-.2.6-.2.1 0 .2 0 .4.1.1 0 .2.1.3.2.1.1.2.2.2.4.1.2.1.4.1.6V50.5h-.6v-.8-1.4c.2-.2.2-.4 0-.6M37.4 48.7c-.6-.7-1.1-1.4-1.7-2.1v4.1h-.4v-.3-.5-.6-.7-.7V46.1v-.8h.1c.3.3.5.7.8 1.1.3.4.6.8.9 1.1.3.4.6.7.8 1 .3.3.5.6.7.8v-1-1.5-1.4h.4V50.5c-.5-.4-1.1-1.1-1.6-1.8M40.7 47.1c.2-.1.3-.1.5-.1s.3 0 .4.1c.1 0 .2.1.3.2.1.1.2.2.2.3.1.1.1.3.1.5v2.1c0 .1 0 .1.1.1H42.6v.2s-.1 0-.2.1h-.2c-.1 0-.2 0-.3-.1-.1-.1-.1-.2-.1-.3-.2.2-.3.3-.5.4-.1.1-.3.1-.6.1-.1 0-.2 0-.3-.1-.1 0-.2-.1-.3-.2-.1-.1-.1-.2-.2-.3 0-.1-.1-.2-.1-.4 0-.3.1-.5.2-.7.2-.2.4-.3.7-.3.2 0 .4-.1.5-.1.1 0 .2-.1.3-.1.1 0 .1-.1.1-.1v-.2-.4c0-.1-.1-.2-.1-.3-.1-.1-.1-.2-.2-.2-.1-.1-.2-.1-.3-.1-.2 0-.3 0-.5.1-.1.1-.2.2-.3.4h-.1v-.4c.3 0 .5-.2.6-.2m.8 1.7c-.1 0-.2 0-.3.1-.1 0-.2.1-.3.1-.1 0-.2.1-.3.1l-.2.2c0 .1-.1.2-.1.3 0 .2.1.4.2.5.1.1.2.2.4.2s.3 0 .4-.2c.1-.1.2-.2.3-.4v-1.1c.1.2 0 .2-.1.2M43.3 48c.1-.2.2-.4.4-.6.2-.2.3-.3.5-.3.2-.1.4-.1.6-.1.2 0 .4 0 .6.1.2.1.3.1.4.2 0 .1-.1.2-.1.2 0 .1 0 .2-.1.3 0-.1-.1-.1-.1-.2l-.2-.2c-.1-.1-.1-.1-.2-.1s-.2-.1-.3-.1c-.2 0-.4 0-.5.1-.1.1-.3.2-.3.4-.1.1-.2.3-.2.5s-.1.4-.1.6c0 .5.1.9.3 1.2.2.3.5.4.8.4h.3c.1 0 .2-.1.3-.1.1-.1.2-.1.2-.2l.2-.2v.4c-.1.1-.3.2-.5.3-.2.1-.4.1-.6.1-.2 0-.4 0-.6-.1-.2-.1-.4-.2-.5-.3-.1-.1-.3-.3-.4-.6-.1-.2-.1-.5-.1-.9 0-.3.1-.5.2-.8M46.7 45.5c.1-.1.1-.1.2-.1s.2 0 .2.1c.1.1.1.2.1.3 0 .1 0 .2-.1.3-.1.1-.1.1-.2.1s-.2 0-.2-.1c-.1-.1-.1-.2-.1-.3 0-.1 0-.2.1-.3m0 2.3v-.7h.6V50.7h-.6V50v-1.5-.7M48.2 48c.1-.2.2-.4.4-.6.1-.2.3-.3.5-.3.2-.1.4-.1.5-.1.2 0 .4 0 .6.1.2.1.3.2.5.3.2.1.3.3.4.6.1.2.1.5.1.9 0 .3 0 .6-.1.9-.1.2-.2.4-.4.6-.1.2-.3.3-.5.3-.2.1-.4.1-.6.1-.2 0-.4 0-.5-.1-.2-.1-.4-.2-.5-.3-.2-.2-.3-.3-.4-.6-.1-.2-.1-.5-.1-.9-.1-.4 0-.7.1-.9m.4 1.5c0 .2.1.4.2.5.1.2.2.3.3.4.1.1.3.1.5.1s.3 0 .5-.1c.1-.1.2-.2.3-.4.1-.2.1-.3.2-.5 0-.2.1-.4.1-.6 0-.2 0-.4-.1-.6 0-.2-.1-.4-.2-.5-.1-.1-.2-.3-.3-.4-.1-.1-.3-.1-.5-.1s-.3 0-.5.1c-.1.1-.2.2-.3.4-.1.2-.1.3-.2.5 0 .2-.1.4-.1.6.1.2.1.4.1.6M53.7 47.7c-.1-.2-.3-.3-.5-.3-.3 0-.5.1-.7.3-.1.2-.2.5-.2.9V50.6h-.6v-.7-1.5-.7-.7h.5v.6c.1-.2.3-.4.4-.5.4-.1.5-.1.8-.1.1 0 .2 0 .4.1.1 0 .2.1.3.2.1.1.2.2.2.4.1.2.1.4.1.6V50.6h-.6v-.8-1.4c.1-.3 0-.5-.1-.7M55.9 47.1c.2-.1.3-.1.5-.1s.3 0 .4.1c.1 0 .2.1.3.2.1.1.2.2.2.3.1.1.1.3.1.5v2.1c0 .1 0 .1.1.1H57.8v.2s-.1 0-.2.1h-.2c-.1 0-.3 0-.3-.1-.1-.1-.1-.2-.1-.3-.2.2-.3.3-.5.4-.1.1-.3.1-.5.1-.1 0-.2 0-.3-.1-.1 0-.2-.1-.3-.2-.1-.1-.1-.2-.2-.3 0-.1-.1-.2-.1-.4 0-.3.1-.5.2-.7.2-.2.4-.3.7-.3.2 0 .4-.1.5-.1.1 0 .2-.1.3-.1.1 0 .1-.1.1-.1v-.2-.4c0-.1-.1-.2-.1-.3-.1-.1-.1-.2-.2-.2-.1-.1-.2-.1-.3-.1-.2 0-.3 0-.5.1-.1.1-.3.2-.3.4h-.1v-.4c.2 0 .4-.2.5-.2m.8 1.7c-.1 0-.2 0-.3.1-.1 0-.2.1-.3.1-.1 0-.2.1-.3.1l-.2.2c0 .1-.1.2-.1.3 0 .2.1.4.2.5.1.1.2.2.4.2s.3 0 .4-.2c.1-.1.2-.2.3-.4v-1.1c.1.2 0 .2-.1.2M14.3 56.4c0 .1-.1.2-.1.3-.1.1-.1.2-.2.3-.1.1-.2.1-.3.2-.1 0-.3.1-.4.1-.2 0-.3 0-.5-.1s-.3-.2-.4-.3c-.1-.1-.2-.3-.3-.6-.1-.2-.1-.5-.1-.8 0-.3 0-.6.1-.8l.3-.6c.1-.2.3-.3.4-.4.2-.1.3-.1.5-.1.5 0 .8.3 1 .7v-.7-.6-.5-.5-.4h.4v5.6h-.4v-.8zm-1.8-.2c.1.2.1.4.2.5.1.1.2.2.3.2.1 0 .2.1.3.1.2 0 .3-.1.4-.1.1-.1.2-.2.3-.4.1-.2.1-.3.2-.5 0-.2.1-.4.1-.6 0-.5-.1-.9-.2-1.1-.2-.3-.4-.4-.7-.4-.2 0-.3 0-.4.1l-.3.3c-.1.1-.1.3-.2.5 0 .2-.1.4-.1.6.1.3.1.6.1.8M15.8 54c.3-.4.6-.5 1.1-.5.2 0 .4 0 .6.1.2.1.3.2.4.3.1.1.2.3.2.5.1.2.1.4.1.6V55.3H16v.2c0 .2 0 .4.1.5.1.2.1.3.2.4l.3.3c.1.1.3.1.5.1h.3c.1 0 .2-.1.3-.1.1 0 .2-.1.2-.2l.2-.2v.4c-.1.1-.3.2-.5.3-.2.1-.4.1-.6.1-.2 0-.4 0-.6-.1-.2-.1-.4-.2-.5-.4-.1-.2-.2-.3-.3-.6-.1-.2-.1-.4-.1-.7-.1-.4 0-.9.3-1.3m.7-.1l-.3.3c-.1.1-.1.3-.2.4 0 .2-.1.3-.1.4h1.6v-.4c0-.2-.1-.3-.1-.4-.1-.1-.1-.2-.2-.3-.1-.1-.2-.1-.4-.1-.1-.1-.2 0-.3.1M24.3 57.1h-.8c0-.1-.1-.3-.1-.4-.1-.2-.1-.3-.2-.5s-.1-.4-.2-.5c-.1-.2-.1-.4-.2-.5h-1.6c-.1.4-.3.8-.4 1.1-.1.4-.2.6-.3.9h-.4c.3-.9.7-1.7 1-2.6.3-.9.7-1.7 1-2.6h.1l.3.9c.1.3.2.7.4 1 .1.3.2.7.4 1 .1.3.2.7.3 1 .1.3.2.6.3.8.2.1.3.3.4.4m-2.9-2.3h1.4l-.7-1.9-.7 1.9zM24.8 54.5c.1-.2.2-.4.4-.6.2-.2.3-.3.5-.3.2-.1.4-.1.6-.1.2 0 .4 0 .6.1.2.1.3.2.4.2 0 .1-.1.2-.1.2 0 .1 0 .2-.1.3 0-.1-.1-.1-.1-.2l-.2-.2c-.1-.1-.1-.1-.2-.1s-.2-.1-.3-.1c-.2 0-.4 0-.5.1l-.3.3c-.1.1-.1.3-.2.5 0 .2-.1.4-.1.6 0 .5.1.9.3 1.2.2.3.5.4.8.4h.3c.1 0 .2-.1.3-.1.1 0 .2-.1.2-.2l.2-.2v.4c-.1.1-.3.2-.5.3-.2.1-.4.1-.6.1-.2 0-.4 0-.6-.1-.2-.1-.4-.2-.5-.3-.2-.1-.3-.3-.4-.6-.1-.2-.1-.5-.1-.9 0-.2.1-.4.2-.7M29.4 54.1h-.2c-.1 0-.2 0-.3.1l-.2.2c-.1.1-.1.2-.1.3v2.4H28v-2.7-.9h.4v.7c.2-.5.5-.8.8-.8h.2v.6c.1.2 0 .1 0 .1M30.2 54c.3-.4.6-.5 1.1-.5.2 0 .4 0 .6.1.2.1.3.2.4.3.1.1.2.3.2.5.1.2.1.4.1.6V55.3H30.4v.2c0 .2 0 .4.1.5 0 .2.1.3.2.4l.3.3c.1.1.3.1.5.1h.3c.1 0 .2-.1.3-.1.1 0 .2-.1.2-.2l.2-.2v.4c-.1.1-.3.2-.5.3-.2.1-.4.1-.6.1-.2 0-.4 0-.6-.1-.2-.1-.4-.2-.5-.4-.1-.2-.2-.3-.3-.6-.1-.2-.1-.4-.1-.7 0-.4.1-.9.3-1.3m.7-.1l-.3.3c-.1.1-.1.3-.2.4 0 .2-.1.3-.1.4h1.6v-.4c0-.2-.1-.3-.1-.4-.1-.1-.1-.2-.2-.3-.1-.1-.2-.1-.4-.1 0-.1-.1 0-.3.1M35.5 56.4c0 .1-.1.2-.1.3-.1.1-.1.2-.2.3-.1.1-.2.1-.3.2-.1 0-.3.1-.4.1-.2 0-.3 0-.5-.1s-.3-.2-.4-.3c-.1-.1-.2-.3-.3-.6-.1-.2-.1-.5-.1-.8 0-.3 0-.6.1-.8l.3-.6c.1-.2.3-.3.4-.4.2-.1.3-.1.5-.1.5 0 .8.3 1 .7v-.7-.6-1-.4h.4v5.6h-.4v-.8zm-1.8-.2c0 .2.1.4.2.5.1.1.2.2.3.2.1 0 .2.1.3.1.2 0 .3-.1.4-.1.1-.1.2-.2.3-.4.1-.2.1-.3.2-.5 0-.2.1-.4.1-.6 0-.5-.1-.9-.2-1.1-.2-.3-.4-.4-.7-.4-.2 0-.3 0-.4.1l-.3.3c-.1.1-.1.3-.2.5 0 .2-.1.4-.1.6.1.3.1.6.1.8M37 52c.1-.1.1-.1.2-.1s.2 0 .2.1c.1.1.1.2.1.3s0 .2-.1.3c-.1.1-.1.1-.2.1s-.2 0-.2-.1c-.1-.1-.1-.2-.1-.3s.1-.2.1-.3m0 2.3v-.7h.6c0 .2 0 .4-.1.7v2.2c0 .2 0 .5.1.7H37v-.7V55v-.7M39.2 52.6v1.2h.7v.4h-.7v2.3c0 .1 0 .3.1.4 0 .1.1.2.2.3.1.1.2.1.3.1h.2v.2c-.1 0-.2 0-.2.1h-.2c-.3 0-.5-.1-.6-.2-.1-.2-.2-.4-.2-.7v-.4-.5-.6-.8h-.2-.1-.1V54.1 54h.4v-.4-.5l.4-.5zM40.9 53.6c.2 0 .3-.1.5-.1s.3 0 .4.1c.1 0 .2.1.3.2.1.1.2.2.2.4 0 .1.1.3.1.5v2.2c0 .1 0 .1.1.1l.1.1h.2V57s-.1 0-.2.1h-.2c-.1 0-.2 0-.3-.1-.1-.1-.1-.2-.1-.3l-.4.4c-.1.1-.3.1-.5.1-.1 0-.2 0-.3-.1-.1 0-.2-.1-.3-.2-.1-.1-.1-.2-.2-.3 0-.1-.1-.2-.1-.4 0-.3.1-.5.2-.7.2-.2.4-.3.7-.3.2 0 .4-.1.5-.1.1 0 .2-.1.3-.1.1 0 .1-.1.1-.1v-.2-.4c0-.1-.1-.2-.1-.3-.1-.1-.1-.2-.2-.2-.1-.1-.2-.1-.3-.1-.2 0-.3 0-.5.1-.1.1-.3.2-.3.4h-.1v-.4c.1 0 .3-.2.4-.2m.8 1.7c-.1 0-.2 0-.3.1-.1 0-.2.1-.3.1-.1 0-.2.1-.3.1l-.2.2c0 .1-.1.2-.1.4s.1.4.2.5c.1.1.2.2.4.2s.3 0 .4-.2c.1-.1.2-.2.3-.4v-1.1c.1.1 0 .1-.1.1M43.5 54.5c.1-.2.2-.4.4-.6.1-.2.3-.3.5-.3.2-.1.4-.1.6-.1.2 0 .4 0 .6.1.2.1.3.2.4.2 0 .1-.1.2-.1.2 0 .1 0 .2-.1.3h-.1c0-.1-.1-.1-.1-.2l-.2-.2c-.1-.1-.1-.1-.2-.1s-.2-.1-.3-.1c-.2 0-.4 0-.5.1l-.3.3c-.1.1-.1.3-.2.5 0 .2-.1.4-.1.6 0 .5.1.9.3 1.2.2.3.5.4.8.4h.3c.1 0 .2-.1.3-.1.1 0 .2-.1.2-.2l.2-.2v.4c-.1.1-.3.2-.5.3-.2.1-.4.1-.6.1-.2 0-.4 0-.6-.1-.2-.1-.4-.2-.5-.3-.1-.1-.3-.3-.4-.6-.1-.2-.1-.5-.1-.9.1-.2.2-.4.3-.7M46.9 52c.1-.1.1-.1.2-.1s.2 0 .2.1c.1.1.1.2.1.3s0 .2-.1.3c-.1.1-.1.1-.2.1s-.2 0-.2-.1c-.1-.1-.1-.2-.1-.3s0-.2.1-.3m0 2.3v-.7h.6V57.2h-.6v-.7V55v-.7M48.3 54.5c.1-.2.2-.4.4-.6.1-.2.3-.2.5-.3.2-.1.4-.1.6-.1.2 0 .4 0 .6.1.2.1.3.2.5.3.1.2.3.3.4.6.1.2.1.5.1.9s0 .6-.1.9c-.1.2-.2.4-.4.6-.2.1-.3.2-.5.3-.2.1-.4.1-.6.1-.2 0-.4 0-.6-.1-.2-.1-.4-.2-.5-.3-.2-.2-.3-.3-.4-.6-.1-.2-.1-.5-.1-.9s.1-.7.1-.9m.5 1.5c0 .2.1.4.2.5.1.1.2.3.3.4.1.1.3.1.5.1s.4 0 .5-.1c.1-.1.2-.2.3-.4.1-.2.1-.3.2-.5v-.6-.6c0-.2-.1-.4-.2-.5-.1-.2-.2-.3-.3-.4-.1-.1-.3-.1-.5-.1s-.3 0-.5.1c-.1.1-.2.2-.3.4-.1.2-.1.3-.2.5V56m1.7-4.4s.1 0 .1.1c.1 0 .1.1.1.2s0 .2-.1.2c0 .1-.1.1-.2.1l-.9.7h-.3l.9-1.1c.3-.1.4-.2.4-.2M53.9 54.2c-.1-.2-.3-.3-.5-.3-.3 0-.5.1-.7.3-.1.2-.2.5-.2.9V57.1h-.6v-.7V55v-.7-.7h.5v.6c.1-.2.3-.4.4-.5.2-.1.4-.2.6-.2.1 0 .2 0 .4.1.1 0 .2.1.3.2.1.1.2.2.2.4.1.2.1.4.1.6V57.1h-.6v-.8V55c.3-.4.2-.6.1-.8M23.3 63c-.1 0-.2.1-.3.1-.1 0-.2.1-.3.1h-.4c-.3 0-.6 0-.8-.1-.3-.1-.5-.2-.7-.4-.2-.2-.3-.4-.4-.7-.1-.3-.2-.6-.2-.9s0-.6.2-.9c.1-.3.2-.5.4-.7.2-.2.4-.3.7-.4.3-.1.6-.1.9-.1.3 0 .5 0 .7.1.2.1.4.1.5.2 0 0-.1.1-.1.2v.2c0-.1-.1-.1-.2-.2s-.2-.1-.2-.2c-.1-.1-.2-.1-.3-.1-.1 0-.2-.1-.4-.1s-.4 0-.6.1c-.2.1-.4.2-.5.4-.1.2-.3.4-.3.6-.1.2-.1.5-.1.9 0 .3 0 .6.1.9l.3.6c.1.2.3.3.5.4.2.1.4.1.6.1.1 0 .3 0 .4-.1.1 0 .2-.1.3-.1.1 0 .2-.1.3-.2.1-.1.1-.1.2-.1v.4c-.2-.1-.3 0-.3 0M26.1 61.6c-.5-.6-1-1.1-1.5-1.7v3.3h-.4V63v-.4-.5-.5-.5-.5-1-.6h.1c.2.3.5.6.7.9.3.3.5.6.8.9.3.3.5.6.7.8.2.3.4.5.6.7v-.8-1.2-1.1h.4V63.4h-.1c-.4-.7-.8-1.3-1.3-1.8M31.8 63.1h-.5-.1c0-.1-.1-.2-.1-.3 0-.1-.1-.3-.2-.4-.1-.1-.1-.3-.2-.4-.1-.2-.1-.3-.2-.4H29l-.3.9c-.1.3-.2.5-.2.7h-.4l.9-2.1.9-2.1h.1c.1.2.2.5.3.8.1.3.2.5.3.8.1.3.2.6.3.8.1.3.2.5.3.8l.3.6c.2.1.3.2.3.3m-2.5-1.8h1.2l-.6-1.5-.6 1.5zM32.2 61.6h1.4v.4h-1.4zM37.1 63c-.1 0-.2.1-.3.1-.1 0-.2.1-.4.1H36c-.3 0-.6 0-.8-.1-.3-.1-.5-.2-.7-.4-.2-.2-.3-.4-.4-.7-.1-.3-.2-.6-.2-.9s0-.6.2-.9c.1-.3.2-.5.4-.7.2-.2.4-.3.7-.4.3-.1.6-.1.9-.1.2 0 .5 0 .7.1.2.1.4.1.5.2 0 0-.1.1-.1.2v.2c0-.1-.1-.1-.2-.2s-.2-.1-.2-.2c-.1-.1-.2-.1-.3-.1-.1 0-.2-.1-.4-.1s-.4 0-.6.1c-.2.1-.4.2-.5.4-.1.2-.3.4-.3.6-.1.2-.1.5-.1.9 0 .3 0 .6.1.9l.3.6c.1.2.3.3.5.4h.7c.1 0 .3 0 .4-.1.1 0 .2-.1.3-.1.1 0 .2-.1.3-.2.1-.1.1-.1.2-.1v.4c-.1 0-.2.1-.3.1M38.1 59.9v-.5-.4-.4h.6v2.2c.1-.2.2-.3.4-.4.2-.1.3-.1.5-.1h.3c.1 0 .2.1.3.2.1.1.2.2.2.3.1.1.1.3.1.5v1.9h-.4v-.6-1.1c0-.3-.1-.5-.2-.7-.1-.1-.3-.2-.5-.2-.3 0-.5.1-.6.3-.1.2-.2.4-.2.7V63.1H38v-.3-.4-.5-1.5c.1-.2.1-.3.1-.5M41.3 59c.1-.1.1-.1.2-.1s.2 0 .2.1c.1.1.1.1.1.2s0 .2-.1.2c0 .1-.1.1-.2.1s-.1 0-.2-.1-.1-.1-.1-.2c.1 0 .1-.1.1-.2m0 1.8v-.6h.6v2.9h-.6v-.5-1.2-.6M42.9 59.9v-.5-.4-.4h.6V63h-.6v-.3-.4-.5-1.5-.4M44.4 60.6c.2-.3.5-.4 1-.4.2 0 .4 0 .5.1.1.1.3.2.4.3.1.1.2.2.2.4s.1.3.1.5v.2h-2v.2c0 .2 0 .3.1.4 0 .1.1.3.2.4.1.1.2.2.3.2.1.1.3.1.4.1h.2c.1 0 .2-.1.2-.1.1 0 .1-.1.2-.1l.2-.2v.3c-.1.1-.3.2-.4.2-.2.1-.3.1-.5.1s-.4 0-.6-.1c-.2-.1-.3-.2-.4-.3-.1-.1-.2-.3-.3-.5-.1-.2-.1-.4-.1-.6 0-.4.1-.8.3-1.1m.6-.1c-.1.1-.2.2-.2.3-.1.1-.1.2-.1.3 0 .1 0 .2-.1.3h1.6v-.3c0-.1-.1-.2-.1-.3-.1-.1-.1-.2-.2-.3-.1-.1-.2-.1-.4-.1-.3 0-.4 0-.5.1"/><path class="st1" d="M36 23.7l5.7 12.7-3.9 2.9-4.9-11-6.2 14.5-.3.3-.5.2h-4.4l-.2-.1 8.5-19.6.2-.3h5.8l.1.1zM37.8 39.4l-5 4h6.7z"/><path class="st0" d="M37.8 39.4l-5 4h6.7z"/><path class="st1" d="M41.8 36.5l10-8.3-6.6 15.2H44.9l-.1-.2z"/><path class="st0" d="M58.5 46.9v-.6-.5-.4h.6V50.5h-.6v-.4-.5-.5-1.7-.5M65 22.4h3.2v42.8H65z"/></svg>